<svg preserveAspectRatio="none" overflow="visible" style="display: block;" width="78.5798" height="79" viewBox="0 0 78.5798 79" fill="none" xmlns="http://www.w3.org/2000/svg">
<g id="Group 1000003019">
<ellipse id="Ellipse 15" cx="39.2899" cy="39.5" rx="39.2899" ry="39.5" fill="white"/>
<g id="mingcute:ai-line">
<path id="Vector" d="M35.9743 28.8871C36.4991 27.3503 38.6731 27.3503 39.1979 28.8871L40.5711 32.9081C40.9915 34.14 41.6886 35.2593 42.6089 36.1799C43.5292 37.1005 44.6483 37.798 45.8801 38.2188L49.9011 39.592C51.4396 40.1168 51.4396 42.2908 49.9011 42.8156L45.8801 44.1888C44.6485 44.6094 43.5295 45.3066 42.6092 46.2269C41.6889 47.1472 40.9917 48.2661 40.5711 49.4978L39.1979 53.5187C38.6731 55.0573 36.4991 55.0573 35.9743 53.5187L34.6011 49.4978C34.1805 48.2661 33.4833 47.1472 32.563 46.2269C31.6427 45.3066 30.5238 44.6094 29.2921 44.1888L25.2712 42.8156C23.7326 42.2908 23.7326 40.1168 25.2712 39.592L29.2921 38.2188C30.5238 37.7982 31.6427 37.101 32.563 36.1807C33.4833 35.2604 34.1805 34.1414 34.6011 32.9098L35.9743 28.8871ZM51.2164 24.1659L52.0853 26.7046L54.624 27.5735L52.0853 28.4424L51.2164 30.9811L50.3475 28.4424L47.8088 27.5735L50.3475 26.7046L51.2164 24.1659Z" stroke="#9263FF" stroke-width="3.40757" stroke-linejoin="round"/>
</g>
</g>
</svg>
