<svg width="79" height="79" viewBox="0 0 79 79" fill="none" xmlns="http://www.w3.org/2000/svg">
  <circle cx="39.5" cy="39.5" r="37.5" stroke="black" stroke-width="3.5"/>
  <g transform="translate(39.5, 39.5) rotate(-90) scale(1, -1) translate(-39.5, -39.5)">
    <path fill-rule="evenodd" clip-rule="evenodd" d="M51.9 37.3542H55.3125V33.3777H51.1902C50.8603 32.7108 50.4756 32.0724 50.0402 31.4691L50.3951 30.8851L52.0996 28.0582L49.1461 26.427L44.4164 23.8187L41.4611 22.1875L39.7549 25.0112L39.4051 25.5951C39.0178 25.5625 38.6339 25.5461 38.25 25.5461C37.8661 25.5461 37.4822 25.5625 37.0949 25.5951L36.7451 25.0112L35.0389 22.1875L32.0836 23.8187L27.3539 26.427L24.4004 28.0582L26.1049 30.8851L26.4598 31.4691C26.0244 32.0724 25.6397 32.7108 25.3098 33.3777H21.1875V37.3542H24.6V36.6398H27.6883C28.19 34.7753 29.2086 33.1115 30.6026 31.8032L29.0602 29.2537L33.7898 26.6421L35.3323 29.1965C36.2622 28.9519 37.2382 28.8083 38.25 28.8083C39.2618 28.8083 40.2378 28.9519 41.1677 29.1965L42.7102 26.6421L47.4398 29.2537L45.8974 31.8032C47.2914 33.1115 48.31 34.7753 48.8117 36.6398H51.9V37.3542ZM38.25 32.7242C35.1698 32.7242 32.5663 34.6746 31.7172 37.3542H35.4717C36.0905 36.5262 37.1042 35.9866 38.25 35.9866C39.3958 35.9866 40.4095 36.5262 41.0283 37.3542H44.7828C43.9337 34.6746 41.3302 32.7242 38.25 32.7242ZM47.729 54.4167C51.5962 54.4167 54.7873 48.6274 55.2537 41.1458H51.4534C51.255 43.9185 50.6274 46.4237 49.6999 48.2787C48.8628 49.9531 48.0684 50.625 47.729 50.625C47.3896 50.625 46.5953 49.9531 45.7582 48.2787C44.8307 46.4237 44.203 43.9185 44.0047 41.1458H40.2044C40.4389 44.9069 41.362 48.2404 42.7134 50.6256L38.2499 50.6262V50.625C37.9105 50.625 37.1161 49.9531 36.279 48.2787C35.3515 46.4237 34.7239 43.9185 34.5255 41.1458H30.7253C30.9598 44.9076 31.8831 48.2416 33.235 50.6269L28.907 50.6275L28.7653 50.6248C27.4654 50.5312 25.4426 46.608 25.0474 41.1458H21.2461C21.7013 48.4473 24.7516 54.137 28.4927 54.4067L28.7707 54.4167H47.729Z" fill="black"/>
  </g>
</svg>